STARTFONT 2.1
FONT -Fondu--Medium-R-Normal--10-100-75-75-P-50-MacRoman-1
SIZE 10 75 75
FONTBOUNDINGBOX 6 10 0 -2
COMMENT Created by Fondu from a mac NFNT/FONT resource
STARTPROPERTIES 17
FOUNDRY "Fondu"
FAMILY_NAME ""
WEIGHT_NAME "Medium"
SLANT "R"
SETWIDTH_NAME "Normal"
ADD_STYLE_NAME ""
PIXEL_SIZE 10
POINT_SIZE 100
RESOLUTION_X 75
RESOLUTION_Y 75
SPACING "P"
AVERAGE_WIDTH 50
CHARSET_REGISTRY "MacRoman"
CHARSET_ENCODING "1"
FONT_ASCENT 8
FONT_DESCENT 2
FACE_NAME "nameless"
ENDPROPERTIES
CHARS 224
STARTCHAR space
ENCODING 32
SWIDTH 500 0
DWIDTH 5 0
BBX 0 0 5 -2
BITMAP
ENDCHAR
STARTCHAR exclam
ENCODING 33
SWIDTH 500 0
DWIDTH 5 0
BBX 1 6 2 0
BITMAP
80
80
80
80
00
80
ENDCHAR
STARTCHAR quotedbl
ENCODING 34
SWIDTH 500 0
DWIDTH 5 0
BBX 3 2 1 4
BITMAP
A0
A0
ENDCHAR
STARTCHAR numbersign
ENCODING 35
SWIDTH 500 0
DWIDTH 5 0
BBX 5 5 0 1
BITMAP
28
78
50
F0
A0
ENDCHAR
STARTCHAR dollar
ENCODING 36
SWIDTH 500 0
DWIDTH 5 0
BBX 3 8 1 -1
BITMAP
40
E0
A0
40
20
A0
E0
40
ENDCHAR
STARTCHAR percent
ENCODING 37
SWIDTH 500 0
DWIDTH 5 0
BBX 4 6 0 0
BITMAP
50
A0
40
30
50
A0
ENDCHAR
STARTCHAR ampersand
ENCODING 38
SWIDTH 500 0
DWIDTH 5 0
BBX 5 6 0 0
BITMAP
60
80
40
A8
90
68
ENDCHAR
STARTCHAR quotesingle
ENCODING 39
SWIDTH 500 0
DWIDTH 5 0
BBX 1 2 1 4
BITMAP
80
80
ENDCHAR
STARTCHAR parenleft
ENCODING 40
SWIDTH 500 0
DWIDTH 5 0
BBX 2 7 1 -1
BITMAP
40
80
80
80
80
80
40
ENDCHAR
STARTCHAR parenright
ENCODING 41
SWIDTH 500 0
DWIDTH 5 0
BBX 2 7 1 -1
BITMAP
80
40
40
40
40
40
80
ENDCHAR
STARTCHAR asterisk
ENCODING 42
SWIDTH 500 0
DWIDTH 5 0
BBX 3 4 1 2
BITMAP
40
E0
E0
40
ENDCHAR
STARTCHAR plus
ENCODING 43
SWIDTH 500 0
DWIDTH 5 0
BBX 5 5 0 0
BITMAP
20
20
F8
20
20
ENDCHAR
STARTCHAR comma
ENCODING 44
SWIDTH 500 0
DWIDTH 5 0
BBX 2 3 1 -2
BITMAP
40
40
80
ENDCHAR
STARTCHAR hyphen
ENCODING 45
SWIDTH 500 0
DWIDTH 5 0
BBX 4 1 0 2
BITMAP
F0
ENDCHAR
STARTCHAR period
ENCODING 46
SWIDTH 500 0
DWIDTH 5 0
BBX 1 1 2 0
BITMAP
80
ENDCHAR
STARTCHAR slash
ENCODING 47
SWIDTH 500 0
DWIDTH 5 0
BBX 3 6 1 0
BITMAP
20
20
40
40
80
80
ENDCHAR
STARTCHAR zero
ENCODING 48
SWIDTH 500 0
DWIDTH 5 0
BBX 4 6 0 0
BITMAP
60
90
90
90
90
60
ENDCHAR
STARTCHAR one
ENCODING 49
SWIDTH 500 0
DWIDTH 5 0
BBX 3 6 1 0
BITMAP
C0
40
40
40
40
E0
ENDCHAR
STARTCHAR two
ENCODING 50
SWIDTH 500 0
DWIDTH 5 0
BBX 4 6 0 0
BITMAP
60
90
10
20
40
F0
ENDCHAR
STARTCHAR three
ENCODING 51
SWIDTH 500 0
DWIDTH 5 0
BBX 4 6 0 0
BITMAP
60
90
20
10
90
60
ENDCHAR
STARTCHAR four
ENCODING 52
SWIDTH 500 0
DWIDTH 5 0
BBX 4 6 0 0
BITMAP
10
30
50
F0
10
10
ENDCHAR
STARTCHAR five
ENCODING 53
SWIDTH 500 0
DWIDTH 5 0
BBX 4 6 0 0
BITMAP
F0
80
E0
10
90
60
ENDCHAR
STARTCHAR six
ENCODING 54
SWIDTH 500 0
DWIDTH 5 0
BBX 4 6 0 0
BITMAP
20
40
E0
90
90
60
ENDCHAR
STARTCHAR seven
ENCODING 55
SWIDTH 500 0
DWIDTH 5 0
BBX 4 6 0 0
BITMAP
F0
90
20
20
40
40
ENDCHAR
STARTCHAR eight
ENCODING 56
SWIDTH 500 0
DWIDTH 5 0
BBX 4 6 0 0
BITMAP
60
90
60
90
90
60
ENDCHAR
STARTCHAR nine
ENCODING 57
SWIDTH 500 0
DWIDTH 5 0
BBX 4 6 0 0
BITMAP
60
90
90
70
20
40
ENDCHAR
STARTCHAR colon
ENCODING 58
SWIDTH 500 0
DWIDTH 5 0
BBX 1 4 2 0
BITMAP
80
00
00
80
ENDCHAR
STARTCHAR semicolon
ENCODING 59
SWIDTH 500 0
DWIDTH 5 0
BBX 2 6 1 -2
BITMAP
40
00
00
40
40
80
ENDCHAR
STARTCHAR less
ENCODING 60
SWIDTH 500 0
DWIDTH 5 0
BBX 3 5 0 0
BITMAP
20
40
80
40
20
ENDCHAR
STARTCHAR equal
ENCODING 61
SWIDTH 500 0
DWIDTH 5 0
BBX 4 3 0 1
BITMAP
F0
00
F0
ENDCHAR
STARTCHAR greater
ENCODING 62
SWIDTH 500 0
DWIDTH 5 0
BBX 3 5 1 0
BITMAP
80
40
20
40
80
ENDCHAR
STARTCHAR question
ENCODING 63
SWIDTH 500 0
DWIDTH 5 0
BBX 4 6 0 0
BITMAP
60
90
20
40
00
40
ENDCHAR
STARTCHAR at
ENCODING 64
SWIDTH 500 0
DWIDTH 5 0
BBX 4 7 0 -1
BITMAP
60
90
B0
D0
B0
80
60
ENDCHAR
STARTCHAR A
ENCODING 65
SWIDTH 500 0
DWIDTH 5 0
BBX 4 6 0 0
BITMAP
60
90
90
F0
90
90
ENDCHAR
STARTCHAR B
ENCODING 66
SWIDTH 500 0
DWIDTH 5 0
BBX 4 6 0 0
BITMAP
E0
50
60
50
50
E0
ENDCHAR
STARTCHAR C
ENCODING 67
SWIDTH 500 0
DWIDTH 5 0
BBX 4 6 0 0
BITMAP
70
90
80
80
90
60
ENDCHAR
STARTCHAR D
ENCODING 68
SWIDTH 500 0
DWIDTH 5 0
BBX 4 6 0 0
BITMAP
E0
50
50
50
50
E0
ENDCHAR
STARTCHAR E
ENCODING 69
SWIDTH 500 0
DWIDTH 5 0
BBX 4 6 0 0
BITMAP
F0
40
60
40
40
F0
ENDCHAR
STARTCHAR F
ENCODING 70
SWIDTH 500 0
DWIDTH 5 0
BBX 4 6 0 0
BITMAP
F0
40
60
40
40
E0
ENDCHAR
STARTCHAR G
ENCODING 71
SWIDTH 500 0
DWIDTH 5 0
BBX 4 6 0 0
BITMAP
60
90
80
B0
90
60
ENDCHAR
STARTCHAR H
ENCODING 72
SWIDTH 500 0
DWIDTH 5 0
BBX 5 6 0 0
BITMAP
D8
90
F0
90
90
D8
ENDCHAR
STARTCHAR I
ENCODING 73
SWIDTH 500 0
DWIDTH 5 0
BBX 3 6 1 0
BITMAP
E0
40
40
40
40
E0
ENDCHAR
STARTCHAR J
ENCODING 74
SWIDTH 500 0
DWIDTH 5 0
BBX 5 6 0 0
BITMAP
38
10
10
90
90
60
ENDCHAR
STARTCHAR K
ENCODING 75
SWIDTH 500 0
DWIDTH 5 0
BBX 4 6 0 0
BITMAP
90
A0
C0
C0
A0
90
ENDCHAR
STARTCHAR L
ENCODING 76
SWIDTH 500 0
DWIDTH 5 0
BBX 5 6 0 0
BITMAP
E0
40
40
40
48
F8
ENDCHAR
STARTCHAR M
ENCODING 77
SWIDTH 500 0
DWIDTH 5 0
BBX 5 6 0 0
BITMAP
88
D8
A8
88
88
88
ENDCHAR
STARTCHAR N
ENCODING 78
SWIDTH 500 0
DWIDTH 5 0
BBX 4 6 0 0
BITMAP
90
90
D0
B0
90
90
ENDCHAR
STARTCHAR O
ENCODING 79
SWIDTH 500 0
DWIDTH 5 0
BBX 4 6 0 0
BITMAP
60
90
90
90
90
60
ENDCHAR
STARTCHAR P
ENCODING 80
SWIDTH 500 0
DWIDTH 5 0
BBX 4 6 0 0
BITMAP
E0
50
50
60
40
E0
ENDCHAR
STARTCHAR Q
ENCODING 81
SWIDTH 500 0
DWIDTH 5 0
BBX 4 7 0 -1
BITMAP
60
90
90
90
90
60
10
ENDCHAR
STARTCHAR R
ENCODING 82
SWIDTH 500 0
DWIDTH 5 0
BBX 5 6 0 0
BITMAP
E0
50
50
60
50
C8
ENDCHAR
STARTCHAR S
ENCODING 83
SWIDTH 500 0
DWIDTH 5 0
BBX 4 6 0 0
BITMAP
70
90
60
10
90
E0
ENDCHAR
STARTCHAR T
ENCODING 84
SWIDTH 500 0
DWIDTH 5 0
BBX 5 6 0 0
BITMAP
F8
A8
A8
20
20
70
ENDCHAR
STARTCHAR U
ENCODING 85
SWIDTH 500 0
DWIDTH 5 0
BBX 5 6 0 0
BITMAP
D8
90
90
90
90
60
ENDCHAR
STARTCHAR V
ENCODING 86
SWIDTH 500 0
DWIDTH 5 0
BBX 5 6 0 0
BITMAP
D8
88
50
50
20
20
ENDCHAR
STARTCHAR W
ENCODING 87
SWIDTH 500 0
DWIDTH 5 0
BBX 5 6 0 0
BITMAP
A8
A8
A8
50
50
50
ENDCHAR
STARTCHAR X
ENCODING 88
SWIDTH 500 0
DWIDTH 5 0
BBX 5 6 0 0
BITMAP
D8
50
20
20
50
D8
ENDCHAR
STARTCHAR Y
ENCODING 89
SWIDTH 500 0
DWIDTH 5 0
BBX 5 6 0 0
BITMAP
D8
50
20
20
20
70
ENDCHAR
STARTCHAR Z
ENCODING 90
SWIDTH 500 0
DWIDTH 5 0
BBX 4 6 0 0
BITMAP
F0
90
20
40
90
F0
ENDCHAR
STARTCHAR bracketleft
ENCODING 91
SWIDTH 500 0
DWIDTH 5 0
BBX 2 8 1 -2
BITMAP
C0
80
80
80
80
80
80
C0
ENDCHAR
STARTCHAR backslash
ENCODING 92
SWIDTH 500 0
DWIDTH 5 0
BBX 3 6 1 0
BITMAP
80
80
40
40
20
20
ENDCHAR
STARTCHAR bracketright
ENCODING 93
SWIDTH 500 0
DWIDTH 5 0
BBX 2 8 1 -2
BITMAP
C0
40
40
40
40
40
40
C0
ENDCHAR
STARTCHAR asciicircum
ENCODING 94
SWIDTH 500 0
DWIDTH 5 0
BBX 4 2 0 4
BITMAP
60
90
ENDCHAR
STARTCHAR underscore
ENCODING 95
SWIDTH 500 0
DWIDTH 5 0
BBX 5 1 0 -2
BITMAP
F8
ENDCHAR
STARTCHAR grave
ENCODING 96
SWIDTH 500 0
DWIDTH 5 0
BBX 2 2 1 4
BITMAP
80
40
ENDCHAR
STARTCHAR a
ENCODING 97
SWIDTH 500 0
DWIDTH 5 0
BBX 4 4 0 0
BITMAP
E0
50
90
70
ENDCHAR
STARTCHAR b
ENCODING 98
SWIDTH 500 0
DWIDTH 5 0
BBX 4 6 0 0
BITMAP
80
80
E0
90
90
E0
ENDCHAR
STARTCHAR c
ENCODING 99
SWIDTH 500 0
DWIDTH 5 0
BBX 4 4 0 0
BITMAP
70
90
80
70
ENDCHAR
STARTCHAR d
ENCODING 100
SWIDTH 500 0
DWIDTH 5 0
BBX 5 6 0 0
BITMAP
30
10
70
90
90
78
ENDCHAR
STARTCHAR e
ENCODING 101
SWIDTH 500 0
DWIDTH 5 0
BBX 4 4 0 0
BITMAP
60
B0
C0
70
ENDCHAR
STARTCHAR f
ENCODING 102
SWIDTH 500 0
DWIDTH 5 0
BBX 4 6 0 0
BITMAP
30
40
F0
40
40
F0
ENDCHAR
STARTCHAR g
ENCODING 103
SWIDTH 500 0
DWIDTH 5 0
BBX 4 6 0 -2
BITMAP
70
90
90
70
10
60
ENDCHAR
STARTCHAR h
ENCODING 104
SWIDTH 500 0
DWIDTH 5 0
BBX 5 6 0 0
BITMAP
C0
80
E0
90
90
D8
ENDCHAR
STARTCHAR i
ENCODING 105
SWIDTH 500 0
DWIDTH 5 0
BBX 3 6 1 0
BITMAP
40
00
C0
40
40
E0
ENDCHAR
STARTCHAR j
ENCODING 106
SWIDTH 500 0
DWIDTH 5 0
BBX 3 8 0 -2
BITMAP
20
00
E0
20
20
20
20
C0
ENDCHAR
STARTCHAR k
ENCODING 107
SWIDTH 500 0
DWIDTH 5 0
BBX 5 6 0 0
BITMAP
C0
40
50
60
50
D8
ENDCHAR
STARTCHAR l
ENCODING 108
SWIDTH 500 0
DWIDTH 5 0
BBX 3 6 1 0
BITMAP
C0
40
40
40
40
E0
ENDCHAR
STARTCHAR m
ENCODING 109
SWIDTH 500 0
DWIDTH 5 0
BBX 5 4 0 0
BITMAP
D0
A8
A8
A8
ENDCHAR
STARTCHAR n
ENCODING 110
SWIDTH 500 0
DWIDTH 5 0
BBX 4 4 0 0
BITMAP
E0
90
90
90
ENDCHAR
STARTCHAR o
ENCODING 111
SWIDTH 500 0
DWIDTH 5 0
BBX 4 4 0 0
BITMAP
60
90
90
60
ENDCHAR
STARTCHAR p
ENCODING 112
SWIDTH 500 0
DWIDTH 5 0
BBX 4 6 0 -2
BITMAP
E0
90
90
E0
80
C0
ENDCHAR
STARTCHAR q
ENCODING 113
SWIDTH 500 0
DWIDTH 5 0
BBX 5 6 0 -2
BITMAP
70
90
90
70
10
38
ENDCHAR
STARTCHAR r
ENCODING 114
SWIDTH 500 0
DWIDTH 5 0
BBX 4 4 0 0
BITMAP
B0
40
40
E0
ENDCHAR
STARTCHAR s
ENCODING 115
SWIDTH 500 0
DWIDTH 5 0
BBX 4 4 0 0
BITMAP
70
C0
30
E0
ENDCHAR
STARTCHAR t
ENCODING 116
SWIDTH 500 0
DWIDTH 5 0
BBX 4 5 0 0
BITMAP
40
F0
40
40
30
ENDCHAR
STARTCHAR u
ENCODING 117
SWIDTH 500 0
DWIDTH 5 0
BBX 4 4 0 0
BITMAP
90
90
90
70
ENDCHAR
STARTCHAR v
ENCODING 118
SWIDTH 500 0
DWIDTH 5 0
BBX 5 4 0 0
BITMAP
D8
50
20
20
ENDCHAR
STARTCHAR w
ENCODING 119
SWIDTH 500 0
DWIDTH 5 0
BBX 5 4 0 0
BITMAP
A8
A8
50
50
ENDCHAR
STARTCHAR x
ENCODING 120
SWIDTH 500 0
DWIDTH 5 0
BBX 3 4 1 0
BITMAP
A0
40
40
A0
ENDCHAR
STARTCHAR y
ENCODING 121
SWIDTH 500 0
DWIDTH 5 0
BBX 5 6 0 -2
BITMAP
D8
50
50
20
20
40
ENDCHAR
STARTCHAR z
ENCODING 122
SWIDTH 500 0
DWIDTH 5 0
BBX 4 4 0 0
BITMAP
F0
20
40
F0
ENDCHAR
STARTCHAR braceleft
ENCODING 123
SWIDTH 500 0
DWIDTH 5 0
BBX 3 7 0 -1
BITMAP
20
40
40
80
40
40
20
ENDCHAR
STARTCHAR bar
ENCODING 124
SWIDTH 500 0
DWIDTH 5 0
BBX 1 7 2 -1
BITMAP
80
80
80
80
80
80
80
ENDCHAR
STARTCHAR braceright
ENCODING 125
SWIDTH 500 0
DWIDTH 5 0
BBX 3 7 1 -1
BITMAP
80
40
40
20
40
40
80
ENDCHAR
STARTCHAR asciitilde
ENCODING 126
SWIDTH 500 0
DWIDTH 5 0
BBX 4 2 0 2
BITMAP
50
A0
ENDCHAR
STARTCHAR char007f
ENCODING 127
SWIDTH 500 0
DWIDTH 5 0
BBX 0 0 0 -2
BITMAP
ENDCHAR
STARTCHAR Adieresis
ENCODING 128
SWIDTH 500 0
DWIDTH 5 0
BBX 4 8 0 0
BITMAP
90
00
60
90
90
F0
90
90
ENDCHAR
STARTCHAR Aring
ENCODING 129
SWIDTH 500 0
DWIDTH 5 0
BBX 4 8 0 0
BITMAP
F0
00
60
90
90
F0
90
90
ENDCHAR
STARTCHAR Ccedilla
ENCODING 130
SWIDTH 500 0
DWIDTH 5 0
BBX 4 6 0 0
BITMAP
F0
00
E0
70
90
70
ENDCHAR
STARTCHAR Eacute
ENCODING 131
SWIDTH 500 0
DWIDTH 5 0
BBX 4 8 0 0
BITMAP
10
20
F0
40
60
40
40
F0
ENDCHAR
STARTCHAR Ntilde
ENCODING 132
SWIDTH 500 0
DWIDTH 5 0
BBX 4 8 0 -2
BITMAP
60
90
90
F0
90
90
20
10
ENDCHAR
STARTCHAR Odieresis
ENCODING 133
SWIDTH 500 0
DWIDTH 5 0
BBX 4 8 0 0
BITMAP
90
00
60
90
90
90
90
60
ENDCHAR
STARTCHAR Udieresis
ENCODING 134
SWIDTH 500 0
DWIDTH 5 0
BBX 4 8 0 0
BITMAP
90
00
90
90
90
90
90
60
ENDCHAR
STARTCHAR aacute
ENCODING 135
SWIDTH 500 0
DWIDTH 5 0
BBX 4 7 0 0
BITMAP
20
40
00
E0
70
90
70
ENDCHAR
STARTCHAR agrave
ENCODING 136
SWIDTH 500 0
DWIDTH 5 0
BBX 4 6 0 -2
BITMAP
E0
70
90
70
20
10
ENDCHAR
STARTCHAR acircumflex
ENCODING 137
SWIDTH 500 0
DWIDTH 5 0
BBX 4 8 0 0
BITMAP
50
20
70
90
80
80
90
60
ENDCHAR
STARTCHAR adieresis
ENCODING 138
SWIDTH 500 0
DWIDTH 5 0
BBX 4 6 0 0
BITMAP
90
00
E0
70
90
70
ENDCHAR
STARTCHAR atilde
ENCODING 139
SWIDTH 500 0
DWIDTH 5 0
BBX 4 7 0 0
BITMAP
50
20
00
70
90
80
70
ENDCHAR
STARTCHAR aring
ENCODING 140
SWIDTH 500 0
DWIDTH 5 0
BBX 4 8 0 0
BITMAP
10
20
70
90
80
80
90
60
ENDCHAR
STARTCHAR ccedilla
ENCODING 141
SWIDTH 500 0
DWIDTH 5 0
BBX 4 7 0 0
BITMAP
10
20
00
70
90
80
70
ENDCHAR
STARTCHAR eacute
ENCODING 142
SWIDTH 500 0
DWIDTH 5 0
BBX 4 7 0 0
BITMAP
10
20
00
60
B0
C0
70
ENDCHAR
STARTCHAR egrave
ENCODING 143
SWIDTH 500 0
DWIDTH 5 0
BBX 4 8 0 0
BITMAP
10
20
F0
90
20
40
90
F0
ENDCHAR
STARTCHAR ecircumflex
ENCODING 144
SWIDTH 500 0
DWIDTH 5 0
BBX 4 7 0 0
BITMAP
20
40
00
F0
20
40
F0
ENDCHAR
STARTCHAR edieresis
ENCODING 145
SWIDTH 500 0
DWIDTH 5 0
BBX 4 8 0 0
BITMAP
50
20
E0
50
50
50
50
E0
ENDCHAR
STARTCHAR iacute
ENCODING 146
SWIDTH 500 0
DWIDTH 5 0
BBX 3 7 1 0
BITMAP
20
40
00
C0
40
40
E0
ENDCHAR
STARTCHAR igrave
ENCODING 147
SWIDTH 500 0
DWIDTH 5 0
BBX 6 8 0 0
BITMAP
04
04
38
10
70
90
90
78
ENDCHAR
STARTCHAR icircumflex
ENCODING 148
SWIDTH 500 0
DWIDTH 5 0
BBX 4 8 0 0
BITMAP
F0
00
F0
40
60
40
40
F0
ENDCHAR
STARTCHAR idieresis
ENCODING 149
SWIDTH 500 0
DWIDTH 5 0
BBX 4 6 0 0
BITMAP
F0
00
60
B0
C0
70
ENDCHAR
STARTCHAR ntilde
ENCODING 150
SWIDTH 500 0
DWIDTH 5 0
BBX 4 8 0 0
BITMAP
20
00
F0
40
60
40
40
F0
ENDCHAR
STARTCHAR oacute
ENCODING 151
SWIDTH 500 0
DWIDTH 5 0
BBX 4 7 0 0
BITMAP
20
40
00
60
90
90
60
ENDCHAR
STARTCHAR ograve
ENCODING 152
SWIDTH 500 0
DWIDTH 5 0
BBX 4 6 0 0
BITMAP
20
00
60
B0
C0
70
ENDCHAR
STARTCHAR ocircumflex
ENCODING 153
SWIDTH 500 0
DWIDTH 5 0
BBX 4 7 0 0
BITMAP
60
90
00
60
90
90
60
ENDCHAR
STARTCHAR odieresis
ENCODING 154
SWIDTH 500 0
DWIDTH 5 0
BBX 4 6 0 0
BITMAP
90
00
60
90
90
60
ENDCHAR
STARTCHAR otilde
ENCODING 155
SWIDTH 500 0
DWIDTH 5 0
BBX 4 7 0 0
BITMAP
50
A0
00
60
90
90
60
ENDCHAR
STARTCHAR uacute
ENCODING 156
SWIDTH 500 0
DWIDTH 5 0
BBX 4 7 0 0
BITMAP
20
40
00
90
90
90
70
ENDCHAR
STARTCHAR ugrave
ENCODING 157
SWIDTH 500 0
DWIDTH 5 0
BBX 4 8 0 0
BITMAP
50
20
F0
40
60
40
40
F0
ENDCHAR
STARTCHAR ucircumflex
ENCODING 158
SWIDTH 500 0
DWIDTH 5 0
BBX 4 7 0 0
BITMAP
50
20
00
60
B0
C0
70
ENDCHAR
STARTCHAR udieresis
ENCODING 159
SWIDTH 500 0
DWIDTH 5 0
BBX 4 6 0 0
BITMAP
90
00
90
90
90
70
ENDCHAR
STARTCHAR dagger
ENCODING 160
SWIDTH 500 0
DWIDTH 5 0
BBX 3 7 1 -1
BITMAP
40
E0
40
40
40
40
40
ENDCHAR
STARTCHAR degree
ENCODING 161
SWIDTH 500 0
DWIDTH 5 0
BBX 3 3 1 3
BITMAP
40
A0
40
ENDCHAR
STARTCHAR cent
ENCODING 162
SWIDTH 500 0
DWIDTH 5 0
BBX 4 7 0 -1
BITMAP
F0
40
60
40
40
F0
20
ENDCHAR
STARTCHAR sterling
ENCODING 163
SWIDTH 500 0
DWIDTH 5 0
BBX 5 6 0 0
BITMAP
30
40
E0
40
48
F0
ENDCHAR
STARTCHAR section
ENCODING 164
SWIDTH 500 0
DWIDTH 5 0
BBX 4 7 0 -1
BITMAP
70
80
60
90
60
10
E0
ENDCHAR
STARTCHAR bullet
ENCODING 165
SWIDTH 500 0
DWIDTH 5 0
BBX 2 2 1 2
BITMAP
C0
C0
ENDCHAR
STARTCHAR paragraph
ENCODING 166
SWIDTH 500 0
DWIDTH 5 0
BBX 5 7 0 -1
BITMAP
78
B0
B0
70
30
30
78
ENDCHAR
STARTCHAR germandbls
ENCODING 167
SWIDTH 500 0
DWIDTH 5 0
BBX 4 6 0 0
BITMAP
60
90
A0
90
90
A0
ENDCHAR
STARTCHAR registered
ENCODING 168
SWIDTH 700 0
DWIDTH 7 0
BBX 6 6 0 0
BITMAP
78
84
B4
B4
84
78
ENDCHAR
STARTCHAR copyright
ENCODING 169
SWIDTH 700 0
DWIDTH 7 0
BBX 6 6 0 0
BITMAP
78
84
B4
B4
84
78
ENDCHAR
STARTCHAR trademark
ENCODING 170
SWIDTH 800 0
DWIDTH 8 0
BBX 6 3 1 3
BITMAP
F4
5C
5C
ENDCHAR
STARTCHAR acute
ENCODING 171
SWIDTH 500 0
DWIDTH 5 0
BBX 4 5 0 -1
BITMAP
60
B0
C0
70
20
ENDCHAR
STARTCHAR dieresis
ENCODING 172
SWIDTH 600 0
DWIDTH 6 0
BBX 4 1 1 7
BITMAP
90
ENDCHAR
STARTCHAR notequal
ENCODING 173
SWIDTH 500 0
DWIDTH 5 0
BBX 4 5 0 0
BITMAP
20
F0
40
F0
80
ENDCHAR
STARTCHAR AE
ENCODING 174
SWIDTH 500 0
DWIDTH 5 0
BBX 4 9 0 -2
BITMAP
10
20
00
70
90
90
70
10
60
ENDCHAR
STARTCHAR Oslash
ENCODING 175
SWIDTH 500 0
DWIDTH 5 0
BBX 3 8 1 -2
BITMAP
E0
40
40
40
40
E0
40
20
ENDCHAR
STARTCHAR infinity
ENCODING 176
SWIDTH 500 0
DWIDTH 5 0
BBX 3 8 1 -2
BITMAP
40
00
C0
40
40
E0
40
20
ENDCHAR
STARTCHAR plusminus
ENCODING 177
SWIDTH 500 0
DWIDTH 5 0
BBX 3 8 1 0
BITMAP
E0
00
E0
40
40
40
40
E0
ENDCHAR
STARTCHAR lessequal
ENCODING 178
SWIDTH 500 0
DWIDTH 5 0
BBX 3 5 0 0
BITMAP
20
40
80
40
E0
ENDCHAR
STARTCHAR greaterequal
ENCODING 179
SWIDTH 500 0
DWIDTH 5 0
BBX 3 5 1 0
BITMAP
80
40
20
40
E0
ENDCHAR
STARTCHAR yen
ENCODING 180
SWIDTH 500 0
DWIDTH 5 0
BBX 3 6 1 0
BITMAP
E0
00
C0
40
40
E0
ENDCHAR
STARTCHAR mu
ENCODING 181
SWIDTH 500 0
DWIDTH 5 0
BBX 4 8 0 -2
BITMAP
90
A0
C0
C0
A0
90
20
40
ENDCHAR
STARTCHAR partialdiff
ENCODING 182
SWIDTH 400 0
DWIDTH 4 0
BBX 3 6 0 0
BITMAP
C0
20
60
A0
A0
40
ENDCHAR
STARTCHAR summation
ENCODING 183
SWIDTH 600 0
DWIDTH 6 0
BBX 5 7 0 -1
BITMAP
F8
88
40
20
48
88
F8
ENDCHAR
STARTCHAR product
ENCODING 184
SWIDTH 500 0
DWIDTH 5 0
BBX 3 6 1 0
BITMAP
C0
60
C0
40
40
E0
ENDCHAR
STARTCHAR pi
ENCODING 185
SWIDTH 500 0
DWIDTH 5 0
BBX 4 8 0 -2
BITMAP
E0
40
40
40
50
F0
20
40
ENDCHAR
STARTCHAR integral
ENCODING 186
SWIDTH 500 0
DWIDTH 5 0
BBX 3 8 1 -2
BITMAP
C0
40
40
40
40
E0
40
80
ENDCHAR
STARTCHAR ordfeminine
ENCODING 187
SWIDTH 500 0
DWIDTH 5 0
BBX 5 7 0 0
BITMAP
08
E8
50
40
40
50
F0
ENDCHAR
STARTCHAR ordmasculine
ENCODING 188
SWIDTH 500 0
DWIDTH 5 0
BBX 4 7 1 0
BITMAP
10
D0
60
40
40
40
E0
ENDCHAR
STARTCHAR Omega
ENCODING 189
SWIDTH 500 0
DWIDTH 5 0
BBX 4 8 0 0
BITMAP
20
40
E0
40
40
40
50
F0
ENDCHAR
STARTCHAR ae
ENCODING 190
SWIDTH 500 0
DWIDTH 5 0
BBX 3 8 1 0
BITMAP
20
40
C0
40
40
40
40
E0
ENDCHAR
STARTCHAR oslash
ENCODING 191
SWIDTH 500 0
DWIDTH 5 0
BBX 4 8 0 -2
BITMAP
90
D0
D0
B0
B0
90
40
80
ENDCHAR
STARTCHAR questiondown
ENCODING 192
SWIDTH 500 0
DWIDTH 5 0
BBX 4 6 0 -2
BITMAP
E0
90
90
90
40
80
ENDCHAR
STARTCHAR exclamdown
ENCODING 193
SWIDTH 500 0
DWIDTH 5 0
BBX 4 8 0 0
BITMAP
10
20
90
D0
D0
B0
B0
90
ENDCHAR
STARTCHAR logicalnot
ENCODING 194
SWIDTH 600 0
DWIDTH 6 0
BBX 5 2 0 1
BITMAP
F8
08
ENDCHAR
STARTCHAR radical
ENCODING 195
SWIDTH 500 0
DWIDTH 5 0
BBX 5 6 0 0
BITMAP
18
10
20
A0
40
40
ENDCHAR
STARTCHAR florin
ENCODING 196
SWIDTH 500 0
DWIDTH 5 0
BBX 4 7 0 0
BITMAP
20
40
00
E0
90
90
90
ENDCHAR
STARTCHAR approxequal
ENCODING 197
SWIDTH 500 0
DWIDTH 5 0
BBX 4 8 0 0
BITMAP
A0
40
90
D0
D0
B0
B0
90
ENDCHAR
STARTCHAR Delta
ENCODING 198
SWIDTH 600 0
DWIDTH 6 0
BBX 5 6 0 0
BITMAP
20
20
50
50
88
F8
ENDCHAR
STARTCHAR guillemotleft
ENCODING 199
SWIDTH 500 0
DWIDTH 5 0
BBX 5 5 0 0
BITMAP
28
50
A0
50
28
ENDCHAR
STARTCHAR guillemotright
ENCODING 200
SWIDTH 500 0
DWIDTH 5 0
BBX 5 5 0 0
BITMAP
A0
50
28
50
A0
ENDCHAR
STARTCHAR ellipsis
ENCODING 201
SWIDTH 500 0
DWIDTH 5 0
BBX 5 1 0 0
BITMAP
A8
ENDCHAR
STARTCHAR nbspace
ENCODING 202
SWIDTH 500 0
DWIDTH 5 0
BBX 0 0 0 -2
BITMAP
ENDCHAR
STARTCHAR Agrave
ENCODING 203
SWIDTH 500 0
DWIDTH 5 0
BBX 4 7 0 0
BITMAP
A0
40
00
E0
90
90
90
ENDCHAR
STARTCHAR Atilde
ENCODING 204
SWIDTH 500 0
DWIDTH 5 0
BBX 4 8 0 0
BITMAP
50
50
60
90
90
90
90
60
ENDCHAR
STARTCHAR Otilde
ENCODING 205
SWIDTH 500 0
DWIDTH 5 0
BBX 4 8 0 0
BITMAP
50
A0
60
90
90
90
90
60
ENDCHAR
STARTCHAR OE
ENCODING 206
SWIDTH 500 0
DWIDTH 5 0
BBX 4 6 0 0
BITMAP
50
50
60
90
90
60
ENDCHAR
STARTCHAR oe
ENCODING 207
SWIDTH 500 0
DWIDTH 5 0
BBX 4 8 0 0
BITMAP
F0
00
60
90
90
90
90
60
ENDCHAR
STARTCHAR endash
ENCODING 208
SWIDTH 500 0
DWIDTH 5 0
BBX 3 1 0 2
BITMAP
E0
ENDCHAR
STARTCHAR emdash
ENCODING 209
SWIDTH 500 0
DWIDTH 5 0
BBX 5 1 0 2
BITMAP
F8
ENDCHAR
STARTCHAR quotedblleft
ENCODING 210
SWIDTH 500 0
DWIDTH 5 0
BBX 4 3 0 3
BITMAP
50
A0
A0
ENDCHAR
STARTCHAR quotedblright
ENCODING 211
SWIDTH 500 0
DWIDTH 5 0
BBX 4 3 0 3
BITMAP
50
50
A0
ENDCHAR
STARTCHAR quoteleft
ENCODING 212
SWIDTH 500 0
DWIDTH 5 0
BBX 2 3 1 3
BITMAP
40
80
80
ENDCHAR
STARTCHAR quoteright
ENCODING 213
SWIDTH 500 0
DWIDTH 5 0
BBX 2 3 1 3
BITMAP
40
40
80
ENDCHAR
STARTCHAR divide
ENCODING 214
SWIDTH 500 0
DWIDTH 5 0
BBX 5 5 0 0
BITMAP
20
00
F8
00
20
ENDCHAR
STARTCHAR lozenge
ENCODING 215
SWIDTH 400 0
DWIDTH 4 0
BBX 3 6 0 0
BITMAP
40
40
A0
A0
40
40
ENDCHAR
STARTCHAR ydieresis
ENCODING 216
SWIDTH 500 0
DWIDTH 5 0
BBX 4 6 0 0
BITMAP
F0
00
60
90
90
60
ENDCHAR
STARTCHAR Ydieresis
ENCODING 217
SWIDTH 500 0
DWIDTH 5 0
BBX 5 8 0 0
BITMAP
10
20
E0
50
50
60
50
C8
ENDCHAR
STARTCHAR fraction
ENCODING 218
SWIDTH 500 0
DWIDTH 5 0
BBX 4 7 0 0
BITMAP
20
40
00
B0
40
40
E0
ENDCHAR
STARTCHAR currency
ENCODING 219
SWIDTH 500 0
DWIDTH 5 0
BBX 5 8 0 0
BITMAP
50
20
E0
50
50
60
50
C8
ENDCHAR
STARTCHAR guilsinglleft
ENCODING 220
SWIDTH 500 0
DWIDTH 5 0
BBX 4 7 1 0
BITMAP
10
20
40
80
40
20
10
ENDCHAR
STARTCHAR guilsinglright
ENCODING 221
SWIDTH 500 0
DWIDTH 5 0
BBX 4 7 0 0
BITMAP
80
40
20
10
20
40
80
ENDCHAR
STARTCHAR fi
ENCODING 222
SWIDTH 500 0
DWIDTH 5 0
BBX 4 7 0 0
BITMAP
A0
40
00
B0
40
40
E0
ENDCHAR
STARTCHAR fl
ENCODING 223
SWIDTH 500 0
DWIDTH 5 0
BBX 5 8 0 -2
BITMAP
E0
50
50
60
50
E8
20
40
ENDCHAR
STARTCHAR daggerdbl
ENCODING 224
SWIDTH 500 0
DWIDTH 5 0
BBX 4 6 0 -2
BITMAP
B0
40
40
E0
40
80
ENDCHAR
STARTCHAR periodcentered
ENCODING 225
SWIDTH 500 0
DWIDTH 5 0
BBX 4 8 0 0
BITMAP
50
20
70
90
60
10
90
E0
ENDCHAR
STARTCHAR quotesinglbase
ENCODING 226
SWIDTH 500 0
DWIDTH 5 0
BBX 2 3 1 -2
BITMAP
40
40
80
ENDCHAR
STARTCHAR quotedblbase
ENCODING 227
SWIDTH 500 0
DWIDTH 5 0
BBX 4 3 0 -2
BITMAP
50
50
A0
ENDCHAR
STARTCHAR perthousand
ENCODING 228
SWIDTH 500 0
DWIDTH 5 0
BBX 4 7 0 0
BITMAP
50
20
00
70
E0
10
E0
ENDCHAR
STARTCHAR Acircumflex
ENCODING 229
SWIDTH 500 0
DWIDTH 5 0
BBX 4 8 0 0
BITMAP
10
20
70
90
60
10
90
E0
ENDCHAR
STARTCHAR Ecircumflex
ENCODING 230
SWIDTH 500 0
DWIDTH 5 0
BBX 4 7 0 0
BITMAP
20
40
00
70
E0
10
E0
ENDCHAR
STARTCHAR Aacute
ENCODING 231
SWIDTH 500 0
DWIDTH 5 0
BBX 4 8 0 0
BITMAP
20
40
60
90
90
F0
90
90
ENDCHAR
STARTCHAR Edieresis
ENCODING 232
SWIDTH 500 0
DWIDTH 5 0
BBX 5 8 0 0
BITMAP
50
20
F8
A8
A8
20
20
70
ENDCHAR
STARTCHAR Egrave
ENCODING 233
SWIDTH 500 0
DWIDTH 5 0
BBX 4 8 0 0
BITMAP
10
10
60
40
F0
40
40
30
ENDCHAR
STARTCHAR Iacute
ENCODING 234
SWIDTH 500 0
DWIDTH 5 0
BBX 3 8 1 0
BITMAP
20
40
E0
40
40
40
40
E0
ENDCHAR
STARTCHAR Icircumflex
ENCODING 235
SWIDTH 500 0
DWIDTH 5 0
BBX 4 8 0 0
BITMAP
A0
40
F0
90
20
40
90
F0
ENDCHAR
STARTCHAR Idieresis
ENCODING 236
SWIDTH 500 0
DWIDTH 5 0
BBX 4 7 0 0
BITMAP
50
20
00
F0
20
40
F0
ENDCHAR
STARTCHAR Igrave
ENCODING 237
SWIDTH 500 0
DWIDTH 5 0
BBX 5 8 0 0
BITMAP
F8
00
D8
90
90
90
90
60
ENDCHAR
STARTCHAR Oacute
ENCODING 238
SWIDTH 500 0
DWIDTH 5 0
BBX 4 8 0 0
BITMAP
20
40
60
90
90
90
90
60
ENDCHAR
STARTCHAR Ocircumflex
ENCODING 239
SWIDTH 500 0
DWIDTH 5 0
BBX 4 8 0 0
BITMAP
60
90
60
90
90
90
90
60
ENDCHAR
STARTCHAR apple
ENCODING 240
SWIDTH 500 0
DWIDTH 5 0
BBX 4 6 0 0
BITMAP
F0
00
90
90
90
70
ENDCHAR
STARTCHAR Ograve
ENCODING 241
SWIDTH 500 0
DWIDTH 5 0
BBX 5 8 0 0
BITMAP
20
50
B8
90
90
90
90
60
ENDCHAR
STARTCHAR Uacute
ENCODING 242
SWIDTH 500 0
DWIDTH 5 0
BBX 5 8 0 0
BITMAP
10
20
D8
90
90
90
90
60
ENDCHAR
STARTCHAR Ucircumflex
ENCODING 243
SWIDTH 500 0
DWIDTH 5 0
BBX 4 7 0 0
BITMAP
20
50
20
90
90
90
70
ENDCHAR
STARTCHAR Ugrave
ENCODING 244
SWIDTH 500 0
DWIDTH 5 0
BBX 5 8 0 0
BITMAP
50
A0
D8
90
90
90
90
60
ENDCHAR
STARTCHAR dotlessi
ENCODING 245
SWIDTH 500 0
DWIDTH 5 0
BBX 4 6 0 0
BITMAP
50
A0
90
90
90
70
ENDCHAR
STARTCHAR circumflex
ENCODING 246
SWIDTH 500 0
DWIDTH 5 0
BBX 5 8 0 -2
BITMAP
D8
90
90
90
90
60
20
10
ENDCHAR
STARTCHAR tilde
ENCODING 247
SWIDTH 500 0
DWIDTH 5 0
BBX 4 6 0 -2
BITMAP
90
90
90
70
20
10
ENDCHAR
STARTCHAR macron
ENCODING 248
SWIDTH 500 0
DWIDTH 5 0
BBX 5 8 0 0
BITMAP
10
20
D8
50
20
20
20
70
ENDCHAR
STARTCHAR breve
ENCODING 249
SWIDTH 500 0
DWIDTH 5 0
BBX 5 9 0 -2
BITMAP
10
20
00
D8
50
50
20
20
40
ENDCHAR
STARTCHAR dotaccent
ENCODING 250
SWIDTH 500 0
DWIDTH 5 0
BBX 5 8 0 -2
BITMAP
C0
40
50
60
50
D8
20
40
ENDCHAR
STARTCHAR ring
ENCODING 251
SWIDTH 500 0
DWIDTH 5 0
BBX 4 8 0 0
BITMAP
20
00
F0
90
20
40
90
F0
ENDCHAR
STARTCHAR cedilla
ENCODING 252
SWIDTH 500 0
DWIDTH 5 0
BBX 4 6 0 0
BITMAP
E0
40
60
C0
50
F0
ENDCHAR
STARTCHAR hungarumlaut
ENCODING 253
SWIDTH 500 0
DWIDTH 5 0
BBX 4 6 0 0
BITMAP
20
00
F0
20
40
F0
ENDCHAR
STARTCHAR ogonek
ENCODING 254
SWIDTH 500 0
DWIDTH 5 0
BBX 4 8 0 -2
BITMAP
60
90
80
B0
90
60
20
40
ENDCHAR
STARTCHAR caron
ENCODING 255
SWIDTH 500 0
DWIDTH 5 0
BBX 3 2 1 6
BITMAP
A0
40
ENDCHAR
ENDFONT
